<svg width="109" height="19" viewBox="0 0 109 19" fill="none" xmlns="http://www.w3.org/2000/svg">
<g clip-path="url(#clip0_27_155)">
<path d="M32.6337 16.5479H29.6514L34.1961 3.37296H37.7854L42.3248 16.5479H39.3425L36.0436 6.38695H35.9433L32.6337 16.5479ZM32.449 11.3697H39.5009V13.5445H32.449V11.3697Z" fill="white"/>
<path d="M43.744 16.5472V3.37762H46.4835V8.32875H46.5679C46.6894 8.06485 46.8636 7.79035 47.0905 7.51592C47.3175 7.24142 47.6183 7.00919 47.9931 6.81917C48.3626 6.63438 48.8271 6.53937 49.3814 6.53937C50.0992 6.53937 50.7643 6.72939 51.3766 7.1042C51.9836 7.47895 52.4745 8.04372 52.8387 8.79327C53.2029 9.54806 53.3877 10.4876 53.3877 11.6225C53.3877 12.7257 53.2082 13.6547 52.8545 14.4095C52.5009 15.1643 52.0205 15.7396 51.4135 16.125C50.8065 16.5156 50.1256 16.7056 49.3761 16.7056C48.843 16.7056 48.3943 16.6159 48.0195 16.4417C47.65 16.2675 47.3439 16.0458 47.1116 15.7766C46.8741 15.5074 46.6946 15.2382 46.5732 14.9637H46.4518V16.5472H43.744ZM46.4307 11.6119C46.4307 12.1978 46.5099 12.7099 46.6735 13.148C46.8371 13.586 47.0747 13.9239 47.3808 14.1667C47.687 14.4095 48.067 14.5309 48.5051 14.5309C48.9485 14.5309 49.3286 14.4095 49.6347 14.1614C49.9408 13.9134 50.1784 13.5702 50.3367 13.1321C50.4951 12.694 50.5795 12.1873 50.5795 11.6119C50.5795 11.0419 50.5004 10.5404 50.342 10.1076C50.1837 9.67475 49.9514 9.33697 49.64 9.08884C49.3339 8.84608 48.9538 8.72463 48.4998 8.72463C48.0564 8.72463 47.6764 8.84078 47.3703 9.07831C47.0641 9.31583 46.8266 9.64837 46.6682 10.0812C46.5099 10.514 46.4307 11.0207 46.4307 11.6119Z" fill="white"/>
<path d="M63.2583 9.48574L60.7512 9.6388C60.709 9.4224 60.6139 9.23238 60.4766 9.05819C60.3345 8.88401 60.1497 8.74679 59.9227 8.64118C59.6957 8.53563 59.4212 8.48283 59.1044 8.48283C58.6824 8.48283 58.3235 8.5726 58.0327 8.75203C57.7425 8.93151 57.595 9.16904 57.595 9.46461C57.595 9.70214 57.6901 9.89746 57.8798 10.0611C58.07 10.2247 58.3922 10.3567 58.851 10.4517L60.6404 10.8106C61.6014 11.0059 62.3191 11.3226 62.7887 11.7607C63.2583 12.1989 63.4962 12.7742 63.4962 13.4868C63.4962 14.136 63.3059 14.7008 62.926 15.1917C62.5461 15.6826 62.0288 16.0627 61.3689 16.3319C60.709 16.6063 59.954 16.7383 59.0942 16.7383C57.7846 16.7383 56.7448 16.4638 55.9691 15.9201C55.1932 15.3712 54.7392 14.6269 54.6073 13.6874L57.3048 13.5449C57.3836 13.946 57.5841 14.2469 57.8954 14.4527C58.2073 14.6586 58.6083 14.7642 59.099 14.7642C59.5795 14.7642 59.9648 14.6692 60.2605 14.4844C60.5561 14.2997 60.7036 14.0568 60.709 13.7613C60.7036 13.5132 60.5983 13.3073 60.3923 13.149C60.1864 12.9906 59.8697 12.8639 59.4422 12.7795L57.7323 12.4364C56.7659 12.2411 56.0483 11.9085 55.5785 11.4335C55.1087 10.9584 54.8765 10.3514 54.8765 9.61243C54.8765 8.97902 55.0507 8.43008 55.3938 7.97086C55.7368 7.51164 56.2277 7.15797 56.8556 6.9099C57.4842 6.66178 58.223 6.5351 59.0677 6.5351C60.3135 6.5351 61.3003 6.79905 62.018 7.32686C62.7201 7.86002 63.1373 8.57784 63.2583 9.48574Z" fill="white"/>
<path d="M66.4264 5.39314C66.02 5.39314 65.6714 5.25592 65.3812 4.98673C65.0909 4.71223 64.9482 4.38499 64.9482 4.00494C64.9482 3.6249 65.0909 3.30289 65.3812 3.0284C65.6714 2.75396 66.02 2.62198 66.4264 2.62198C66.8328 2.62198 67.1808 2.7592 67.4716 3.0284C67.7619 3.30289 67.9046 3.6249 67.9046 4.00494C67.9046 4.38499 67.7619 4.71223 67.4716 4.98673C67.1808 5.26116 66.8328 5.39314 66.4264 5.39314ZM65.0488 16.5464V6.6705H67.7883V16.5517H65.0488V16.5464Z" fill="white"/>
<path d="M72.5548 10.8364V16.5477H69.8152V6.67178H72.4278V8.41365H72.544C72.7601 7.83834 73.1298 7.38436 73.6422 7.04658C74.154 6.70874 74.782 6.53986 75.5159 6.53986C76.2017 6.53986 76.7984 6.68761 77.3102 6.98848C77.8226 7.28935 78.2182 7.7169 78.4981 8.27113C78.7775 8.82537 78.9202 9.49045 78.9202 10.2558V16.5477H76.1807V10.7467C76.1861 10.1397 76.0331 9.66993 75.7164 9.32685C75.4052 8.98372 74.9722 8.81483 74.4231 8.81483C74.0534 8.81483 73.7319 8.89401 73.4465 9.05236C73.1671 9.21071 72.945 9.44294 72.792 9.74381C72.6391 10.05 72.5596 10.4142 72.5548 10.8364Z" fill="white"/>
<path d="M86.1665 6.67165V8.73023H80.2178V6.67165H86.1665ZM81.5689 4.30167H84.3084V13.5125C84.3084 13.7658 84.3452 13.9612 84.4246 14.0984C84.5035 14.2356 84.6089 14.3359 84.7516 14.3887C84.8889 14.4467 85.0526 14.4731 85.2375 14.4731C85.3639 14.4731 85.4958 14.4626 85.6228 14.4362C85.7493 14.4151 85.8498 14.3939 85.9185 14.3834L86.3508 16.4209C86.2135 16.4631 86.0184 16.5159 85.7703 16.574C85.5223 16.632 85.2212 16.669 84.8624 16.6795C84.2025 16.7059 83.622 16.6162 83.1313 16.4156C82.6352 16.215 82.2499 15.9036 81.9753 15.476C81.7007 15.0538 81.5635 14.5154 81.5689 13.8661V4.30167Z" fill="white"/>
<path d="M90.7336 10.836V16.5472H87.994V3.37762H90.6541V8.41323H90.7703C90.9925 7.83262 91.3514 7.3734 91.8529 7.04086C92.349 6.70832 92.9716 6.54467 93.7266 6.54467C94.4124 6.54467 95.0091 6.69249 95.5263 6.99335C96.0381 7.28893 96.4397 7.71648 96.7245 8.27071C97.0099 8.82494 97.152 9.49002 97.1466 10.2607V16.5525H94.4076V10.7463C94.4124 10.1393 94.2595 9.66421 93.9482 9.32637C93.6369 8.98859 93.204 8.81964 92.6447 8.81964C92.2696 8.81964 91.9426 8.89882 91.6572 9.05717C91.3724 9.21553 91.1509 9.44782 90.9871 9.74868C90.8179 10.0496 90.739 10.4138 90.7336 10.836Z" fill="white"/>
<path d="M103.904 16.5849C102.885 16.5849 102.014 16.379 101.281 15.9621C100.552 15.5503 99.9875 14.9591 99.5913 14.199C99.1957 13.439 99 12.5363 99 11.4965C99 10.4778 99.1957 9.5857 99.5913 8.82037C99.9875 8.05498 100.541 7.45324 101.26 7.02569C101.977 6.59814 102.822 6.38174 103.788 6.38174C104.437 6.38174 105.049 6.48729 105.609 6.69315C106.173 6.89901 106.665 7.21571 107.087 7.62743C107.509 8.04444 107.836 8.56701 108.074 9.19512C108.311 9.82323 108.428 10.5569 108.428 11.3962V12.151H100.087V10.4514H105.852C105.852 10.0555 105.767 9.70714 105.593 9.40097C105.419 9.09481 105.187 8.85728 104.88 8.68309C104.58 8.5089 104.226 8.42449 103.83 8.42449C103.413 8.42449 103.049 8.5195 102.727 8.70952C102.405 8.89954 102.157 9.15291 101.977 9.47485C101.798 9.79685 101.703 10.1505 101.703 10.5411V12.1563C101.703 12.6472 101.793 13.0694 101.977 13.4231C102.162 13.7768 102.415 14.0512 102.753 14.2466C103.086 14.4419 103.481 14.5369 103.941 14.5369C104.247 14.5369 104.521 14.4946 104.775 14.4102C105.028 14.3257 105.244 14.1937 105.424 14.0249C105.604 13.856 105.741 13.6448 105.836 13.3967L108.369 13.5656C108.243 14.1727 107.979 14.7058 107.583 15.1597C107.187 15.6137 106.675 15.9621 106.052 16.2154C105.44 16.4582 104.717 16.5849 103.904 16.5849Z" fill="white"/>
<path d="M25.3348 17.812L22.3419 19.0154L22.2681 19.0471C22.115 19.0999 21.9461 19.1368 21.7719 19.1368H18.9004C18.647 19.1368 18.4043 19.084 18.1773 18.989C17.8025 18.8307 17.4805 18.5562 17.2694 18.192L17.1533 17.9914L13.0625 10.9078L14.076 9.16594C14.4718 8.47972 15.4642 8.47972 15.86 9.16594L20.3572 16.9569C20.6529 17.4688 21.1648 17.8067 21.7402 17.8858H21.7455C21.8247 17.8964 21.9091 17.9017 21.9936 17.9017H24.865C25.0286 17.8964 25.1923 17.87 25.3348 17.812Z" fill="#006258"/>
<path d="M13.2409 0.444244C12.787 0.644804 12.3805 0.993179 12.1008 1.47353L12.0111 1.62659L6.65349 10.9166L3.85066 15.7727C3.78731 15.8783 3.74511 15.9891 3.71344 16.1V16.1053C3.49698 16.8654 3.97204 17.673 4.74273 17.8577H4.74797C4.85357 17.8841 4.96442 17.8947 5.08051 17.8947H6.66403H7.94668C8.15784 17.8947 8.3637 17.8577 8.55372 17.7944L5.58199 18.9873C5.355 19.0823 5.11218 19.1351 4.85881 19.1351H1.98738C1.52288 19.1351 1.13228 18.9187 0.878913 18.602C0.878913 18.602 0.878913 18.602 0.878913 18.5967C0.541092 18.1692 0.451361 17.5621 0.757511 17.0237L9.01824 2.70868C9.30851 2.21249 9.72553 1.86942 10.19 1.67409L10.2639 1.64242L13.2409 0.444244Z" fill="#006258"/>
<path d="M24.622 19.0508C24.469 19.1089 24.3106 19.1353 24.1417 19.1353H21.2703C21.1858 19.1353 21.1066 19.13 21.0274 19.1195H21.0221C20.4468 19.0455 19.9348 18.7025 19.6392 18.1957L15.142 10.4048C14.7461 9.72388 13.7591 9.71858 13.3632 10.3995L10.3703 15.5829L8.86068 18.1904C8.63898 18.5811 8.28537 18.8713 7.87366 19.0192L7.83669 19.0297C7.64137 19.0983 7.43551 19.13 7.22965 19.13H5.947H4.35824C4.24209 19.13 4.13124 19.1195 4.0257 19.093H4.0204C3.84091 19.0508 3.67732 18.9717 3.5295 18.8661C3.06498 18.5336 2.82746 17.9212 2.99111 17.3406V17.3353C3.02278 17.2245 3.06498 17.1136 3.12833 17.0081L5.93116 12.152L12.0119 1.62154L12.1017 1.46843C12.3814 0.982837 12.7826 0.644999 13.2365 0.444439C13.5532 0.301928 13.9016 0.233307 14.25 0.233307C15.0839 0.233307 15.918 0.644998 16.393 1.47373L18.6205 5.32699L25.3663 17.0134C25.8255 17.8051 25.4191 18.7658 24.622 19.0508Z" fill="#CFE900"/>
<path d="M24.6226 19.0502C24.4695 19.1083 24.3111 19.1347 24.1422 19.1347H21.2708C21.1863 19.1347 21.1071 19.1294 21.028 19.1188H21.0227C20.4473 19.0449 19.9353 18.7018 19.6397 18.1951L15.1425 10.4042C15.0211 10.1983 14.8469 10.0505 14.6516 9.97133C14.203 9.7813 13.6382 9.92382 13.3584 10.3989L16.2668 5.36328C16.7894 4.46597 18.0773 4.45013 18.6157 5.32637L18.8797 5.78029C18.8797 5.78029 18.8849 5.78559 18.8849 5.79083L22.6643 12.3414L25.3615 17.0075C25.826 17.8045 25.4196 18.7652 24.6226 19.0502Z" fill="#799A07"/>
<path opacity="0.2" d="M18.8849 5.77972C18.4732 5.08827 17.4703 5.09351 17.0638 5.79026L14.6516 9.96552C14.203 9.7755 13.6382 9.91802 13.3584 10.3931L16.2668 5.35747C16.7894 4.4601 18.0773 4.44427 18.6157 5.3205L18.8849 5.77972Z" fill="#00002D"/>
<path opacity="0.15" d="M14.25 0.233307L3.5295 18.8661C3.06498 18.5336 2.82746 17.9212 2.99111 17.3406V17.3353C3.02278 17.2245 3.06498 17.1136 3.12833 17.0081L5.93116 12.152L12.0119 1.62154L12.1017 1.46843C12.3814 0.982837 12.7826 0.644999 13.2365 0.444439C13.5585 0.301928 13.9069 0.233307 14.25 0.233307Z" fill="white"/>
</g>
<defs>
<clipPath id="clip0_27_155">
<rect width="108" height="18.6811" fill="white" transform="translate(0.5 0.221588)"/>
</clipPath>
</defs>
</svg>
