<svg width="32" height="33" viewBox="0 0 32 33" fill="none" xmlns="http://www.w3.org/2000/svg">
<path d="M0 16.5621C0 12.8422 0 10.9823 0.40889 9.4563C1.5185 5.3152 4.75307 2.08063 8.89417 0.971024C10.4202 0.562134 12.2801 0.562134 16 0.562134C19.7199 0.562134 21.5798 0.562134 23.1058 0.971024C27.2469 2.08063 30.4815 5.3152 31.5911 9.4563C32 10.9823 32 12.8422 32 16.5621C32 20.282 32 22.142 31.5911 23.668C30.4815 27.8091 27.2469 31.0436 23.1058 32.1532C21.5798 32.5621 19.7199 32.5621 16 32.5621C12.2801 32.5621 10.4202 32.5621 8.89417 32.1532C4.75307 31.0436 1.5185 27.8091 0.40889 23.668C0 22.142 0 20.282 0 16.5621Z" fill="#16181A"/>
<path fill-rule="evenodd" clip-rule="evenodd" d="M15.7433 8.69415C11.3159 8.69415 7.73669 12.2997 7.73669 16.7603C7.73669 20.3258 10.03 23.344 13.2114 24.4122C13.6092 24.4925 13.7549 24.2387 13.7549 24.0251C13.7549 23.8381 13.7417 23.1972 13.7417 22.5293C11.5145 23.0102 11.0507 21.5678 11.0507 21.5678C10.6928 20.633 10.1624 20.3927 10.1624 20.3927C9.43343 19.8986 10.2155 19.8986 10.2155 19.8986C11.0241 19.952 11.4484 20.7265 11.4484 20.7265C12.1641 21.955 13.3174 21.6079 13.7814 21.3942C13.8476 20.8734 14.0598 20.5128 14.2852 20.3126C12.5088 20.1256 10.6398 19.4312 10.6398 16.3328C10.6398 15.4514 10.9578 14.7303 11.4616 14.1695C11.3821 13.9692 11.1036 13.1411 11.5412 12.0327C11.5412 12.0327 12.2172 11.819 13.7416 12.8607C14.3942 12.6841 15.0672 12.5943 15.7433 12.5936C16.4194 12.5936 17.1085 12.6871 17.7449 12.8607C19.2694 11.819 19.9454 12.0327 19.9454 12.0327C20.383 13.1411 20.1044 13.9692 20.0249 14.1695C20.542 14.7303 20.8468 15.4514 20.8468 16.3328C20.8468 19.4312 18.9778 20.1121 17.1882 20.3126C17.4799 20.5663 17.7316 21.0469 17.7316 21.8082C17.7316 22.8899 17.7185 23.758 17.7185 24.025C17.7185 24.2387 17.8644 24.4925 18.262 24.4124C21.4434 23.3438 23.7367 20.3258 23.7367 16.7603C23.7498 12.2997 20.1575 8.69415 15.7433 8.69415Z" fill="white"/>
</svg>
