<svg width="32" height="33" viewBox="0 0 32 33" fill="none" xmlns="http://www.w3.org/2000/svg">
<path d="M0 16.5621C0 12.8422 0 10.9823 0.40889 9.4563C1.5185 5.3152 4.75307 2.08063 8.89417 0.971024C10.4202 0.562134 12.2801 0.562134 16 0.562134C19.7199 0.562134 21.5798 0.562134 23.1058 0.971024C27.2469 2.08063 30.4815 5.3152 31.5911 9.4563C32 10.9823 32 12.8422 32 16.5621C32 20.282 32 22.142 31.5911 23.668C30.4815 27.8091 27.2469 31.0436 23.1058 32.1532C21.5798 32.5621 19.7199 32.5621 16 32.5621C12.2801 32.5621 10.4202 32.5621 8.89417 32.1532C4.75307 31.0436 1.5185 27.8091 0.40889 23.668C0 22.142 0 20.282 0 16.5621Z" fill="#16181A"/>
<g clip-path="url(#clip0_79_202)">
<path d="M21.8307 8.11682H24.6345L18.5089 15.1182L25.7154 24.6454H20.0726L15.6533 18.8671L10.5964 24.6454H7.79072L14.3427 17.1567L7.42969 8.11682H13.2154L17.2102 13.3982L21.8307 8.11682ZM20.8466 22.967H22.4003L12.3712 9.70707H10.7041L20.8466 22.967Z" fill="white"/>
</g>
<defs>
<clipPath id="clip0_79_202">
<rect width="18.2857" height="16.5285" fill="white" transform="translate(7.42969 8.11877)"/>
</clipPath>
</defs>
</svg>
