<svg width="32" height="33" viewBox="0 0 32 33" fill="none" xmlns="http://www.w3.org/2000/svg">
<path d="M0 16.5621C0 12.8422 0 10.9823 0.40889 9.4563C1.5185 5.3152 4.75307 2.08063 8.89417 0.971024C10.4202 0.562134 12.2801 0.562134 16 0.562134C19.7199 0.562134 21.5798 0.562134 23.1058 0.971024C27.2469 2.08063 30.4815 5.3152 31.5911 9.4563C32 10.9823 32 12.8422 32 16.5621C32 20.282 32 22.142 31.5911 23.668C30.4815 27.8091 27.2469 31.0436 23.1058 32.1532C21.5798 32.5621 19.7199 32.5621 16 32.5621C12.2801 32.5621 10.4202 32.5621 8.89417 32.1532C4.75307 31.0436 1.5185 27.8091 0.40889 23.668C0 22.142 0 20.282 0 16.5621Z" fill="#16181A"/>
<path d="M23.9374 9.69092C22.4806 9.03828 20.9183 8.55744 19.2849 8.28204C19.2552 8.27673 19.2255 8.29001 19.2101 8.31657C19.0092 8.66547 18.7867 9.12064 18.6308 9.47839C16.874 9.22159 15.1261 9.22159 13.4053 9.47839C13.2495 9.11267 13.0188 8.66547 12.817 8.31657C12.8017 8.29089 12.772 8.27761 12.7422 8.28204C11.1097 8.55655 9.54747 9.0374 8.08974 9.69092C8.07712 9.69623 8.06631 9.70508 8.0591 9.7166C5.09588 14.0389 4.28413 18.2549 4.68235 22.4186C4.68415 22.439 4.69586 22.4585 4.71208 22.4709C6.66714 23.8727 8.56093 24.7237 10.4196 25.2878C10.4493 25.2966 10.4809 25.286 10.4998 25.2621C10.9394 24.6759 11.3313 24.0578 11.6674 23.4078C11.6872 23.3697 11.6683 23.3245 11.6278 23.3095C11.0061 23.0792 10.4142 22.7985 9.84478 22.4797C9.79974 22.4541 9.79613 22.3912 9.83758 22.3611C9.9574 22.2734 10.0772 22.1822 10.1916 22.0901C10.2124 22.0733 10.2412 22.0697 10.2655 22.0804C14.0063 23.7478 18.056 23.7478 21.7526 22.0804C21.7769 22.0689 21.8058 22.0724 21.8274 22.0892C21.9418 22.1813 22.0616 22.2734 22.1824 22.3611C22.2238 22.3912 22.2211 22.4541 22.1761 22.4797C21.6067 22.8047 21.0147 23.0792 20.3922 23.3086C20.3516 23.3236 20.3336 23.3697 20.3534 23.4078C20.6967 24.0569 21.0886 24.675 21.5202 25.2612C21.5382 25.286 21.5706 25.2966 21.6004 25.2878C23.468 24.7237 25.3618 23.8727 27.3169 22.4709C27.334 22.4585 27.3448 22.4399 27.3466 22.4195C27.8232 17.6058 26.5484 13.4243 23.9672 9.71748C23.9608 9.70508 23.95 9.69623 23.9374 9.69092ZM12.226 19.8834C11.0998 19.8834 10.1718 18.8739 10.1718 17.6341C10.1718 16.3944 11.0818 15.3849 12.226 15.3849C13.3792 15.3849 14.2982 16.4032 14.2802 17.6341C14.2802 18.8739 13.3702 19.8834 12.226 19.8834ZM19.821 19.8834C18.6948 19.8834 17.7668 18.8739 17.7668 17.6341C17.7668 16.3944 18.6768 15.3849 19.821 15.3849C20.9742 15.3849 21.8932 16.4032 21.8752 17.6341C21.8752 18.8739 20.9742 19.8834 19.821 19.8834Z" fill="white"/>
</svg>
